<svg width="75" height="75" viewBox="0 0 40 40" fill="none" xmlns="http://www.w3.org/2000/svg">
    <rect width="75" height="75" rx="0" fill="#F15A24"/>
    <path d="M23.7252 31.6667C25.1669 31.6667 25.9286 33.3733 24.9669 34.4467C24.3417 35.1451 23.5761 35.7038 22.7203 36.0863C21.8645 36.4689 20.9377 36.6666 20.0002 36.6667C19.0628 36.6666 18.136 36.4689 17.2802 36.0863C16.4243 35.7038 15.6588 35.1451 15.0336 34.4467C14.1136 33.42 14.7702 31.815 16.0902 31.6783L16.2736 31.6683L23.7252 31.6667ZM20.0002 3.33333C22.2636 3.33333 24.1769 4.83833 24.7919 6.90166L24.8686 7.18667L24.8819 7.25833C26.7195 8.29452 28.2853 9.75144 29.4511 11.5097C30.6169 13.2679 31.3494 15.2773 31.5886 17.3733L31.6352 17.8517L31.6669 18.3333V23.2183L31.7019 23.445C31.9301 24.673 32.6097 25.7712 33.6069 26.5233L33.8852 26.7183L34.1552 26.8833C35.5886 27.695 35.0886 29.8267 33.5269 29.99L33.3336 30H6.6669C4.95357 30 4.35524 27.7267 5.84524 26.8833C6.48029 26.524 7.02898 26.0299 7.4528 25.4359C7.87663 24.842 8.1653 24.1624 8.29857 23.445L8.33357 23.2067L8.33524 18.2567C8.43686 16.0798 9.0705 13.961 10.1807 12.0858C11.2909 10.2105 12.8438 8.63601 14.7036 7.5L15.1169 7.25667L15.1336 7.185C15.3687 6.18805 15.9043 5.28735 16.668 4.60474C17.4317 3.92213 18.3866 3.49053 19.4036 3.36833L19.7069 3.34L20.0002 3.33333Z" fill="white"/>
</svg>