<svg width="17" height="17" viewBox="0 0 17 17" fill="none" xmlns="http://www.w3.org/2000/svg">
    <path d="M11.3332 8.5C11.3332 8.5 9.24642 11.3333 8.49984 11.3333C7.75325 11.3333 5.6665 8.5 5.6665 8.5M8.49984 10.9792V2.125" stroke="black" stroke-width="1.5" stroke-linecap="round" stroke-linejoin="round"/>
    <path d="M12.0417 5.66663C12.7931 5.66663 13.5138 5.96514 14.0451 6.49649C14.5765 7.02784 14.875 7.74851 14.875 8.49996V10.2708C14.875 11.9248 14.875 12.7514 14.5407 13.3775C14.2765 13.8717 13.8718 14.2765 13.3776 14.5406C12.7514 14.875 11.9248 14.875 10.2708 14.875H6.72917C5.07592 14.875 4.24858 14.875 3.62242 14.5399C3.1286 14.2758 2.72412 13.8714 2.46004 13.3775C2.125 12.7514 2.125 11.9248 2.125 10.2708V8.49925C2.12519 7.74817 2.42359 7.0279 2.95461 6.49674C3.48564 5.96558 4.20584 5.667 4.95692 5.66663H4.95833" stroke="black" stroke-width="1.5" stroke-linecap="round" stroke-linejoin="round"/>
</svg>
