<svg width="25" height="25" viewBox="0 0 25 25" fill="none" xmlns="http://www.w3.org/2000/svg">
    <path d="M2.55616 8.27148C2.84918 7.97853 3.24655 7.81396 3.6609 7.81396C4.07524 7.81396 4.47262 7.97853 4.76563 8.27148L12.5 16.0059L20.2344 8.27148C20.5305 7.99581 20.922 7.84575 21.3265 7.85287C21.7311 7.85999 22.117 8.02374 22.4033 8.30967C22.6895 8.59559 22.8537 8.98139 22.8613 9.3859C22.8688 9.79041 22.7192 10.1821 22.4439 10.4785L13.606 19.3188C13.3129 19.6118 12.9156 19.7764 12.5012 19.7764C12.0869 19.7764 11.6895 19.6118 11.3965 19.3188L2.55616 10.481C2.26321 10.1879 2.09863 9.79056 2.09863 9.37622C2.09863 8.96188 2.26321 8.5645 2.55616 8.27148Z" fill="white"/>
</svg>
