<svg width="20" height="20" viewBox="0 0 20 20" fill="none" xmlns="http://www.w3.org/2000/svg">
    <path d="M4.01766 0H4.73234C5.34879 0 5.83766 9.04284e-08 6.23113 0.0321775C6.63419 0.0649194 6.9746 0.13379 7.28621 0.291855C7.79068 0.549187 8.20074 0.959632 8.45758 1.46435C8.61621 1.77484 8.68508 2.11581 8.71782 2.51887C8.75 2.91234 8.75 3.40121 8.75 4.01766V4.73234C8.75 5.34879 8.75 5.83766 8.71782 6.23113C8.68508 6.63419 8.61621 6.9746 8.45815 7.28621C8.20096 7.7906 7.79072 8.20064 7.28621 8.45758C6.9746 8.61621 6.63419 8.68508 6.23113 8.71782C5.83766 8.75 5.34879 8.75 4.73234 8.75H4.01766C3.40121 8.75 2.91234 8.75 2.51887 8.71782C2.11581 8.68508 1.7754 8.61621 1.46435 8.45815C0.959756 8.20106 0.549508 7.79081 0.292419 7.28621C0.13379 6.9746 0.0649194 6.63419 0.0321775 6.23113C9.04284e-08 5.83766 0 5.34879 0 4.73234V4.01766C0 3.40121 9.04284e-08 2.91234 0.0321775 2.51887C0.0649194 2.11581 0.13379 1.7754 0.291855 1.46435C0.549091 0.95967 0.959546 0.549412 1.46435 0.292419C1.77484 0.13379 2.11581 0.0649194 2.51887 0.0321775C2.91234 9.04284e-08 3.40121 0 4.01766 0ZM2.58774 0.876129C2.23774 0.904355 2.0204 0.959113 1.84823 1.04661C1.5031 1.22249 1.22249 1.5031 1.04661 1.84823C0.959113 2.0204 0.904919 2.23774 0.876129 2.58774C0.847339 2.94339 0.846774 3.39726 0.846774 4.03629V4.71371C0.846774 5.35331 0.846774 5.80718 0.876129 6.16226C0.904355 6.51226 0.959113 6.7296 1.04661 6.90177C1.22249 7.2469 1.5031 7.52751 1.84823 7.70339C2.0204 7.79089 2.23774 7.84508 2.58774 7.87387C2.94339 7.90266 3.39726 7.90323 4.03629 7.90323H4.71371C5.35331 7.90323 5.80718 7.90323 6.16226 7.87387C6.51226 7.84564 6.7296 7.79089 6.90177 7.70339C7.2469 7.52751 7.52751 7.2469 7.70339 6.90177C7.79089 6.7296 7.84508 6.51226 7.87387 6.16226C7.90266 5.80661 7.90323 5.35274 7.90323 4.71371V4.03629C7.90323 3.39669 7.90323 2.94282 7.87387 2.58774C7.84564 2.23774 7.79089 2.0204 7.70339 1.84823C7.52751 1.5031 7.2469 1.22249 6.90177 1.04661C6.7296 0.959113 6.51226 0.904919 6.16226 0.876129C5.80661 0.847339 5.35274 0.846774 4.71371 0.846774H4.03629C3.39669 0.846774 2.94282 0.846774 2.58774 0.876129Z" fill="#DDDDDD"/>
    <path d="M4.01766 11.25H4.73234C5.34879 11.25 5.83766 11.25 6.23113 11.2822C6.63419 11.3149 6.9746 11.3838 7.28621 11.5419C7.79068 11.7992 8.20074 12.2096 8.45758 12.7144C8.61621 13.0248 8.68508 13.3658 8.71782 13.7689C8.75 14.1623 8.75 14.6512 8.75 15.2677V15.9823C8.75 16.5988 8.75 17.0877 8.71782 17.4811C8.68508 17.8842 8.61621 18.2246 8.45815 18.5362C8.20096 19.0406 7.79072 19.4506 7.28621 19.7076C6.9746 19.8662 6.63419 19.9351 6.23113 19.9678C5.83766 20 5.34879 20 4.73234 20H4.01766C3.40121 20 2.91234 20 2.51887 19.9678C2.11581 19.9351 1.7754 19.8662 1.46435 19.7081C0.959756 19.4511 0.549508 19.0408 0.292419 18.5362C0.13379 18.2246 0.0649194 17.8842 0.0321775 17.4811C9.04284e-08 17.0877 0 16.5988 0 15.9823V15.2677C0 14.6512 9.04284e-08 14.1623 0.0321775 13.7689C0.0649194 13.3658 0.13379 13.0254 0.291855 12.7144C0.549091 12.2097 0.959546 11.7994 1.46435 11.5424C1.77484 11.3838 2.11581 11.3149 2.51887 11.2822C2.91234 11.25 3.40121 11.25 4.01766 11.25ZM2.58774 12.1261C2.23774 12.1544 2.0204 12.2091 1.84823 12.2966C1.5031 12.4725 1.22249 12.7531 1.04661 13.0982C0.959113 13.2704 0.904919 13.4877 0.876129 13.8377C0.847339 14.1934 0.846774 14.6473 0.846774 15.2863V15.9637C0.846774 16.6033 0.846774 17.0572 0.876129 17.4123C0.904355 17.7623 0.959113 17.9796 1.04661 18.1518C1.22249 18.4969 1.5031 18.7775 1.84823 18.9534C2.0204 19.0409 2.23774 19.0951 2.58774 19.1239C2.94339 19.1527 3.39726 19.1532 4.03629 19.1532H4.71371C5.35331 19.1532 5.80718 19.1532 6.16226 19.1239C6.51226 19.0956 6.7296 19.0409 6.90177 18.9534C7.2469 18.7775 7.52751 18.4969 7.70339 18.1518C7.79089 17.9796 7.84508 17.7623 7.87387 17.4123C7.90266 17.0566 7.90323 16.6027 7.90323 15.9637V15.2863C7.90323 14.6467 7.90323 14.1928 7.87387 13.8377C7.84564 13.4877 7.79089 13.2704 7.70339 13.0982C7.52751 12.7531 7.2469 12.4725 6.90177 12.2966C6.7296 12.2091 6.51226 12.1549 6.16226 12.1261C5.80661 12.0973 5.35274 12.0968 4.71371 12.0968H4.03629C3.39669 12.0968 2.94282 12.0968 2.58774 12.1261Z" fill="#DDDDDD"/>
    <path d="M15.2677 11.25H15.9823C16.5988 11.25 17.0877 11.25 17.4811 11.2822C17.8842 11.3149 18.2246 11.3838 18.5362 11.5419C19.0407 11.7992 19.4507 12.2096 19.7076 12.7144C19.8662 13.0248 19.9351 13.3658 19.9678 13.7689C20 14.1623 20 14.6512 20 15.2677V15.9823C20 16.5988 20 17.0877 19.9678 17.4811C19.9351 17.8842 19.8662 18.2246 19.7081 18.5362C19.451 19.0406 19.0407 19.4506 18.5362 19.7076C18.2246 19.8662 17.8842 19.9351 17.4811 19.9678C17.0877 20 16.5988 20 15.9823 20H15.2677C14.6512 20 14.1623 20 13.7689 19.9678C13.3658 19.9351 13.0254 19.8662 12.7144 19.7081C12.2098 19.4511 11.7995 19.0408 11.5424 18.5362C11.3838 18.2246 11.3149 17.8842 11.2822 17.4811C11.25 17.0877 11.25 16.5988 11.25 15.9823V15.2677C11.25 14.6512 11.25 14.1623 11.2822 13.7689C11.3149 13.3658 11.3838 13.0254 11.5419 12.7144C11.7991 12.2097 12.2095 11.7994 12.7144 11.5424C13.0248 11.3838 13.3658 11.3149 13.7689 11.2822C14.1623 11.25 14.6512 11.25 15.2677 11.25ZM13.8377 12.1261C13.4877 12.1544 13.2704 12.2091 13.0982 12.2966C12.7531 12.4725 12.4725 12.7531 12.2966 13.0982C12.2091 13.2704 12.1549 13.4877 12.1261 13.8377C12.0973 14.1934 12.0968 14.6473 12.0968 15.2863V15.9637C12.0968 16.6033 12.0968 17.0572 12.1261 17.4123C12.1544 17.7623 12.2091 17.9796 12.2966 18.1518C12.4725 18.4969 12.7531 18.7775 13.0982 18.9534C13.2704 19.0409 13.4877 19.0951 13.8377 19.1239C14.1934 19.1527 14.6473 19.1532 15.2863 19.1532H15.9637C16.6033 19.1532 17.0572 19.1532 17.4123 19.1239C17.7623 19.0956 17.9796 19.0409 18.1518 18.9534C18.4969 18.7775 18.7775 18.4969 18.9534 18.1518C19.0409 17.9796 19.0951 17.7623 19.1239 17.4123C19.1527 17.0566 19.1532 16.6027 19.1532 15.9637V15.2863C19.1532 14.6467 19.1532 14.1928 19.1239 13.8377C19.0956 13.4877 19.0409 13.2704 18.9534 13.0982C18.7775 12.7531 18.4969 12.4725 18.1518 12.2966C17.9796 12.2091 17.7623 12.1549 17.4123 12.1261C17.0566 12.0973 16.6027 12.0968 15.9637 12.0968H15.2863C14.6467 12.0968 14.1928 12.0968 13.8377 12.1261Z" fill="#DDDDDD"/>
    <path d="M15.2677 0H15.9823C16.5988 0 17.0877 9.04284e-08 17.4811 0.0321775C17.8842 0.0649194 18.2246 0.13379 18.5362 0.291855C19.0407 0.549187 19.4507 0.959632 19.7076 1.46435C19.8662 1.77484 19.9351 2.11581 19.9678 2.51887C20 2.91234 20 3.40121 20 4.01766V4.73234C20 5.34879 20 5.83766 19.9678 6.23113C19.9351 6.63419 19.8662 6.9746 19.7081 7.28621C19.451 7.7906 19.0407 8.20064 18.5362 8.45758C18.2246 8.61621 17.8842 8.68508 17.4811 8.71782C17.0877 8.75 16.5988 8.75 15.9823 8.75H15.2677C14.6512 8.75 14.1623 8.75 13.7689 8.71782C13.3658 8.68508 13.0254 8.61621 12.7144 8.45815C12.2098 8.20106 11.7995 7.79081 11.5424 7.28621C11.3838 6.9746 11.3149 6.63419 11.2822 6.23113C11.25 5.83766 11.25 5.34879 11.25 4.73234V4.01766C11.25 3.40121 11.25 2.91234 11.2822 2.51887C11.3149 2.11581 11.3838 1.7754 11.5419 1.46435C11.7991 0.95967 12.2095 0.549412 12.7144 0.292419C13.0248 0.13379 13.3658 0.0649194 13.7689 0.0321775C14.1623 9.04284e-08 14.6512 0 15.2677 0ZM13.8377 0.876129C13.4877 0.904355 13.2704 0.959113 13.0982 1.04661C12.7531 1.22249 12.4725 1.5031 12.2966 1.84823C12.2091 2.0204 12.1549 2.23774 12.1261 2.58774C12.0973 2.94339 12.0968 3.39726 12.0968 4.03629V4.71371C12.0968 5.35331 12.0968 5.80718 12.1261 6.16226C12.1544 6.51226 12.2091 6.7296 12.2966 6.90177C12.4725 7.2469 12.7531 7.52751 13.0982 7.70339C13.2704 7.79089 13.4877 7.84508 13.8377 7.87387C14.1934 7.90266 14.6473 7.90323 15.2863 7.90323H15.9637C16.6033 7.90323 17.0572 7.90323 17.4123 7.87387C17.7623 7.84564 17.9796 7.79089 18.1518 7.70339C18.4969 7.52751 18.7775 7.2469 18.9534 6.90177C19.0409 6.7296 19.0951 6.51226 19.1239 6.16226C19.1527 5.80661 19.1532 5.35274 19.1532 4.71371V4.03629C19.1532 3.39669 19.1532 2.94282 19.1239 2.58774C19.0956 2.23774 19.0409 2.0204 18.9534 1.84823C18.7775 1.5031 18.4969 1.22249 18.1518 1.04661C17.9796 0.959113 17.7623 0.904919 17.4123 0.876129C17.0566 0.847339 16.6027 0.846774 15.9637 0.846774H15.2863C14.6467 0.846774 14.1928 0.846774 13.8377 0.876129Z" fill="#DDDDDD"/>
</svg>
