<svg width="40" height="40" viewBox="0 0 40 40" fill="none" xmlns="http://www.w3.org/2000/svg">
    <path d="M19.9998 20C18.1665 20 16.5971 19.3472 15.2915 18.0417C13.9859 16.7361 13.3332 15.1667 13.3332 13.3333C13.3332 11.5 13.9859 9.93056 15.2915 8.625C16.5971 7.31945 18.1665 6.66667 19.9998 6.66667C21.8332 6.66667 23.4026 7.31945 24.7082 8.625C26.0137 9.93056 26.6665 11.5 26.6665 13.3333C26.6665 15.1667 26.0137 16.7361 24.7082 18.0417C23.4026 19.3472 21.8332 20 19.9998 20ZM6.6665 30V28.6667C6.6665 27.7222 6.90984 26.8544 7.3965 26.0633C7.88317 25.2722 8.52873 24.6678 9.33317 24.25C11.0554 23.3889 12.8054 22.7433 14.5832 22.3133C16.3609 21.8833 18.1665 21.6678 19.9998 21.6667C21.8332 21.6656 23.6387 21.8811 25.4165 22.3133C27.1943 22.7456 28.9443 23.3911 30.6665 24.25C31.4721 24.6667 32.1182 25.2711 32.6048 26.0633C33.0915 26.8556 33.3343 27.7233 33.3332 28.6667V30C33.3332 30.9167 33.0071 31.7017 32.3548 32.355C31.7026 33.0083 30.9176 33.3344 29.9998 33.3333H9.99984C9.08317 33.3333 8.29873 33.0072 7.6465 32.355C6.99428 31.7028 6.66762 30.9178 6.6665 30Z" fill="currentColor"/>
</svg>
