<svg width="20" height="21" viewBox="0 0 20 21" fill="none" xmlns="http://www.w3.org/2000/svg">
    <path d="M11.0126 1.22362C11.0126 0.546804 10.4658 0 9.78894 0C9.11213 0 8.56532 0.546804 8.56532 1.22362V11.0126C8.56532 11.6894 9.11213 12.2362 9.78894 12.2362C10.4658 12.2362 11.0126 11.6894 11.0126 11.0126V1.22362ZM5.59423 4.98624C6.14868 4.60004 6.28251 3.83528 5.89631 3.28083C5.5101 2.72637 4.74534 2.59254 4.19089 2.97874C1.65953 4.74534 0 7.68585 0 11.0126C0 16.4194 4.38208 20.8015 9.78894 20.8015C15.1958 20.8015 19.5779 16.4194 19.5779 11.0126C19.5779 7.68585 17.9184 4.74534 15.3832 2.97874C14.8287 2.59254 14.0678 2.72637 13.6778 3.28083C13.2877 3.83528 13.4254 4.59621 13.9798 4.98624C15.8841 6.31693 17.1268 8.51944 17.1268 11.0126C17.1268 15.0658 13.8384 18.3543 9.78512 18.3543C5.73188 18.3543 2.44724 15.0658 2.44724 11.0126C2.44724 8.51944 3.68997 6.3131 5.59423 4.98624Z" fill="white"/>
</svg>