<svg width="71" height="71" viewBox="0 0 71 71" fill="none" xmlns="http://www.w3.org/2000/svg">
    <path d="M11.6484 28.8438C11.6484 29.2851 11.8238 29.7083 12.1358 30.0204C12.4479 30.3325 12.8712 30.5078 13.3125 30.5078C13.7538 30.5078 14.1771 30.3325 14.4892 30.0204C14.8012 29.7083 14.9766 29.2851 14.9766 28.8438C14.9766 23.4006 17.1388 18.1804 20.9877 14.3315C24.8366 10.4826 30.0568 8.32031 35.5 8.32031C40.9432 8.32031 46.1634 10.4826 50.0123 14.3315C53.8612 18.1804 56.0234 23.4006 56.0234 28.8438C56.0234 36.4846 53.5745 38.8448 50.9813 41.3464C49.786 42.4974 48.549 43.69 47.6088 45.3596C46.5521 47.2344 46.0391 49.4504 46.0391 52.1406C46.0391 54.9358 44.9287 57.6164 42.9522 59.5929C40.9758 61.5693 38.2951 62.6797 35.5 62.6797C32.5213 62.6797 30.0391 61.4261 27.9091 58.8468C27.77 58.6782 27.599 58.5386 27.4059 58.436C27.2128 58.3335 27.0015 58.27 26.7839 58.2491C26.5662 58.2282 26.3466 58.2505 26.1376 58.3145C25.9286 58.3785 25.7342 58.483 25.5655 58.6221C25.3969 58.7613 25.2573 58.9323 25.1548 59.1253C25.0522 59.3184 24.9887 59.5298 24.9679 59.7474C24.947 59.965 24.9692 60.1846 25.0332 60.3937C25.0972 60.6027 25.2018 60.7971 25.3409 60.9657C28.106 64.3105 31.5229 66.0078 35.5 66.0078C39.1765 66.0034 42.7011 64.541 45.3007 61.9413C47.9004 59.3417 49.3628 55.8171 49.3672 52.1406C49.3672 47.5256 51.0978 45.856 53.2916 43.7399C55.9902 41.1384 59.3516 37.8963 59.3516 28.8438C59.3516 22.5179 56.8386 16.4512 52.3656 11.9781C47.8926 7.50511 41.8258 4.99219 35.5 4.99219C29.1742 4.99219 23.1074 7.50511 18.6344 11.9781C14.1614 16.4512 11.6484 22.5179 11.6484 28.8438ZM21.949 45.1543C22.3308 44.9341 22.7845 44.8743 23.2103 44.9882C23.6362 45.1021 23.9995 45.3803 24.2204 45.7617C24.5251 46.2918 24.9964 46.7064 25.561 46.9409C26.1256 47.1755 26.7519 47.2169 27.3425 47.0587C27.9331 46.9006 28.4548 46.5517 28.8266 46.0663C29.1985 45.581 29.3995 44.9864 29.3984 44.375C29.3984 41.6016 28.0117 39.7517 26.4031 37.6078C24.6836 35.3197 22.7422 32.7266 22.7422 28.8438C22.7422 25.4602 24.0863 22.2152 26.4789 19.8226C28.8714 17.4301 32.1164 16.0859 35.5 16.0859C38.8836 16.0859 42.1286 17.4301 44.5211 19.8226C46.9137 22.2152 48.2578 25.4602 48.2578 28.8438C48.2578 29.2851 48.0825 29.7083 47.7704 30.0204C47.4583 30.3325 47.0351 30.5078 46.5938 30.5078C46.1524 30.5078 45.7292 30.3325 45.4171 30.0204C45.105 29.7083 44.9297 29.2851 44.9297 28.8438C44.9297 26.3428 43.9362 23.9444 42.1678 22.176C40.3994 20.4075 38.0009 19.4141 35.5 19.4141C32.9991 19.4141 30.6006 20.4075 28.8322 22.176C27.0638 23.9444 26.0703 26.3428 26.0703 28.8438C26.0703 31.6172 27.457 33.4671 29.0656 35.6109C30.7852 37.899 32.7266 40.4922 32.7266 44.375C32.7263 45.7179 32.283 47.0233 31.4653 48.0886C30.6477 49.154 29.5015 49.9198 28.2043 50.2674C26.9071 50.615 25.5315 50.5249 24.2907 50.0112C23.05 49.4974 22.0133 48.5886 21.3416 47.4258C21.1213 47.0439 21.0616 46.5903 21.1754 46.1644C21.2893 45.7386 21.5675 45.3753 21.949 45.1543Z" fill="#908D8D"/>
    <circle cx="7.1" cy="7.1" r="7.1" transform="matrix(-1 0 0 1 43 22)" fill="#00A2B9"/>
</svg>
