<svg width="71" height="71" viewBox="0 0 71 71" fill="none" xmlns="http://www.w3.org/2000/svg">
    <path d="M59.3516 28.8438C59.3516 29.2851 59.1762 29.7083 58.8642 30.0204C58.5521 30.3325 58.1288 30.5078 57.6875 30.5078C57.2462 30.5078 56.8229 30.3325 56.5108 30.0204C56.1988 29.7083 56.0234 29.2851 56.0234 28.8438C56.0234 23.4006 53.8612 18.1804 50.0123 14.3315C46.1634 10.4826 40.9432 8.32031 35.5 8.32031C30.0568 8.32031 24.8366 10.4826 20.9877 14.3315C17.1388 18.1804 14.9766 23.4006 14.9766 28.8438C14.9766 36.4846 17.4255 38.8448 20.0187 41.3464C21.214 42.4974 22.451 43.69 23.3912 45.3596C24.4479 47.2344 24.9609 49.4504 24.9609 52.1406C24.9609 54.9358 26.0713 57.6164 28.0478 59.5929C30.0242 61.5693 32.7049 62.6797 35.5 62.6797C38.4787 62.6797 40.9609 61.4261 43.0909 58.8468C43.23 58.6782 43.401 58.5386 43.5941 58.436C43.7872 58.3335 43.9985 58.27 44.2161 58.2491C44.4338 58.2282 44.6534 58.2505 44.8624 58.3145C45.0714 58.3785 45.2658 58.483 45.4345 58.6221C45.6031 58.7613 45.7427 58.9323 45.8452 59.1253C45.9478 59.3184 46.0113 59.5298 46.0321 59.7474C46.053 59.965 46.0308 60.1846 45.9668 60.3937C45.9028 60.6027 45.7982 60.7971 45.6591 60.9657C42.894 64.3105 39.4771 66.0078 35.5 66.0078C31.8235 66.0034 28.2989 64.541 25.6993 61.9413C23.0996 59.3417 21.6372 55.8171 21.6328 52.1406C21.6328 47.5256 19.9022 45.856 17.7084 43.7399C15.0098 41.1384 11.6484 37.8963 11.6484 28.8438C11.6484 22.5179 14.1614 16.4512 18.6344 11.9781C23.1074 7.50511 29.1742 4.99219 35.5 4.99219C41.8258 4.99219 47.8926 7.50511 52.3656 11.9781C56.8386 16.4512 59.3516 22.5179 59.3516 28.8438ZM49.051 45.1543C48.6692 44.9341 48.2155 44.8743 47.7897 44.9882C47.3638 45.1021 47.0005 45.3803 46.7796 45.7617C46.4749 46.2918 46.0036 46.7064 45.439 46.9409C44.8744 47.1755 44.2481 47.2169 43.6575 47.0587C43.0669 46.9006 42.5452 46.5517 42.1734 46.0663C41.8015 45.581 41.6005 44.9864 41.6016 44.375C41.6016 41.6016 42.9883 39.7517 44.5969 37.6078C46.3164 35.3197 48.2578 32.7266 48.2578 28.8438C48.2578 25.4602 46.9137 22.2152 44.5211 19.8226C42.1286 17.4301 38.8836 16.0859 35.5 16.0859C32.1164 16.0859 28.8714 17.4301 26.4789 19.8226C24.0863 22.2152 22.7422 25.4602 22.7422 28.8438C22.7422 29.2851 22.9175 29.7083 23.2296 30.0204C23.5417 30.3325 23.9649 30.5078 24.4062 30.5078C24.8476 30.5078 25.2708 30.3325 25.5829 30.0204C25.895 29.7083 26.0703 29.2851 26.0703 28.8438C26.0703 26.3428 27.0638 23.9444 28.8322 22.176C30.6006 20.4075 32.9991 19.4141 35.5 19.4141C38.0009 19.4141 40.3994 20.4075 42.1678 22.176C43.9362 23.9444 44.9297 26.3428 44.9297 28.8438C44.9297 31.6172 43.543 33.4671 41.9344 35.6109C40.2148 37.899 38.2734 40.4922 38.2734 44.375C38.2737 45.7179 38.717 47.0233 39.5347 48.0886C40.3523 49.154 41.4985 49.9198 42.7957 50.2674C44.0929 50.615 45.4685 50.5249 46.7093 50.0112C47.95 49.4974 48.9867 48.5886 49.6584 47.4258C49.8787 47.0439 49.9384 46.5903 49.8246 46.1644C49.7107 45.7386 49.4325 45.3753 49.051 45.1543Z" fill="#908D8D"/>
    <circle cx="35.1" cy="29.1" r="7.1" fill="#FF1313"/>
</svg>
