<svg width="70" height="70" viewBox="0 0 70 70" fill="none" xmlns="http://www.w3.org/2000/svg">
    <path d="M8.75 8.75H17.5V17.5H8.75V8.75Z" fill="black"/>
    <path d="M26.25 0V26.25H0V0H26.25ZM21.875 4.375H4.375V21.875H21.875V4.375ZM17.5 52.5H8.75V61.25H17.5V52.5Z" fill="black"/>
    <path d="M26.25 43.75V70H0V43.75H26.25ZM4.375 48.125V65.625H21.875V48.125H4.375ZM52.5 8.75H61.25V17.5H52.5V8.75Z" fill="black"/>
    <path d="M43.75 0V26.25H70V0H43.75ZM65.625 4.375V21.875H48.125V4.375H65.625ZM35 4.375V0H39.375V8.75H35V17.5H30.625V4.375H35ZM35 26.25V17.5H39.375V26.25H35ZM26.25 35V30.625H30.625V26.25H35V35H39.375V30.625H61.25V35H43.75V39.375H30.625V35H26.25ZM26.25 35V39.375H8.75V35H4.375V39.375H0V30.625H13.125V35H26.25ZM70 39.375H65.625V30.625H70V39.375ZM65.625 39.375H61.25V48.125H70V43.75H65.625V39.375ZM48.125 39.375H56.875V43.75H52.5V48.125H48.125V39.375ZM56.875 52.5V48.125H52.5V52.5H48.125V56.875H39.375V61.25H52.5V52.5H56.875ZM56.875 52.5H70V56.875H61.25V61.25H56.875V52.5ZM39.375 48.125V52.5H43.75V43.75H30.625V48.125H39.375Z" fill="black"/>
    <path d="M30.625 52.5H35V65.625H52.5V70H30.625V52.5ZM70 61.25V70H56.875V65.625H65.625V61.25H70Z" fill="black"/>
</svg>