<svg width="17" height="17" viewBox="0 0 17 17" fill="none" xmlns="http://www.w3.org/2000/svg">
    <path d="M2.125 4.24996H3.54167M3.54167 4.24996H14.875M3.54167 4.24996L3.54167 14.1666C3.54167 14.5423 3.69092 14.9027 3.9566 15.1684C4.22228 15.434 4.58261 15.5833 4.95833 15.5833H12.0417C12.4174 15.5833 12.7777 15.434 13.0434 15.1684C13.3091 14.9027 13.4583 14.5423 13.4583 14.1666V4.24996M5.66667 4.24996V2.83329C5.66667 2.45757 5.81592 2.09723 6.0816 1.83156C6.34728 1.56588 6.70761 1.41663 7.08333 1.41663H9.91667C10.2924 1.41663 10.6527 1.56588 10.9184 1.83156C11.1841 2.09723 11.3333 2.45757 11.3333 2.83329V4.24996M7.08333 7.79163V12.0416M9.91667 7.79163V12.0416" stroke="currentColor" stroke-width="1.6" stroke-linecap="round" stroke-linejoin="round"/>
</svg>
